# xmcd
#
# Track frame offsets:
#	182
#	19185
#	35375
#	50972
#	67642
#	86060
#	99832
#	114690
#	129837
#	145845
#	161755
#
# Disc length: 2338 seconds
# Revision: 0
# Processed by: cddbd v1.5.2PL0 Copyright (c) Steve Scherf et al.
# Submitted via: dBpowerAMP V12.0
#
DISCID=8c09200b
DTITLE=Keith Whitley - Greatest Hits
DYEAR=1990
DGENRE=Country
TTITLE0=Don't Close Your Eyes
TTITLE1=I'm No Stranger to the Rain
TTITLE2=Miami, My Amy
TTITLE3=When You Say Nothing at All
TTITLE4=It Ain't Nothin'
TTITLE5=I'm Over You
TTITLE6=I Wonder Do You Think of Me
TTITLE7=Ten Feet Away
TTITLE8=Talk to Me Texas
TTITLE9='Til a Tear Becomes a Rose
TTITLE10=Tell Lorrie I Love Her
EXTD=
EXTT0=
EXTT1=
EXTT2=
EXTT3=
EXTT4=
EXTT5=
EXTT6=
EXTT7=
EXTT8=
EXTT9=
EXTT10=
PLAYORDER=
